# xmcd
#
# Track frame offsets: 
#        150
#        11845
#        28319
#        50191
#        67194
#        92772
#        117184
#        151585
#
# Disc length: 2431 seconds
#
# Revision: 0
# Processed by: cddbd v1.5.2PL0 Copyright (c) Steve Scherf et al.
# Submitted via: ExactAudioCopy v0.95b4
#
DISCID=6a097d08
DTITLE=Niklas Hegefalk - at one with the tide
DYEAR=2007
DGENRE=Christian
TTITLE0=careless love
TTITLE1=stay
TTITLE2=bodies
TTITLE3=a dull delight
TTITLE4=if i dont black out
TTITLE5=misleading eyes
TTITLE6=who we used to be
TTITLE7=may you be the drug
EXTD=
EXTT0=
EXTT1=
EXTT2=
EXTT3=
EXTT4=
EXTT5=
EXTT6=
EXTT7=
PLAYORDER=
